<svg width="50" height="51" viewBox="0 0 50 51" fill="none" xmlns="http://www.w3.org/2000/svg">
<path d="M11.2301 2.60065H5.6001V47.5042H11.2301V2.60065Z" fill="#00B794"/>
<path d="M38.76 23.7802V23.3031C41.1022 22.7179 43.1295 21.3414 44.45 19.4395C45.8367 17.4937 46.5333 14.6872 46.54 11.0201C46.5467 7.35295 45.4433 4.61509 43.23 2.80647C41.0233 0.93549 37.3267 0 32.14 0H0V11.0201H26.88C29 11.0201 30.05 12.2736 30.05 14.762C30.05 17.2504 28.95 18.504 26.74 18.504H0V30.2912H28.18C30.5333 30.2912 31.71 31.6632 31.71 34.4073C31.71 37.2138 30.48 38.5796 28.04 38.5796H0.0400085V50.4323H35.2C40 50.4323 43.54 49.2099 45.82 46.7652C48.1 44.3204 49.24 41.0743 49.24 37.0267C49.2134 29.3183 45.72 24.9027 38.76 23.7802Z" fill="#00B794"/>
<path d="M22.1002 2.60065H16.4702V47.5042H22.1002V2.60065Z" fill="#00B794"/>
</svg>
